# xmcd CD database file
#
# Track frame offsets:
#	182
#	20455
#	39947
#	57087
#	78805
#	99300
#	124165
#	145745
#	162492
#
# Disc length: 2419 seconds
#
# Revision: 0
# Processed by: cddbd v1.5.2PL0 Copyright (c) Steve Scherf et al.
# Submitted via: CDex 1.51
#
DISCID=66097109
DTITLE=Bariluk Bracchitta Cimorosi - Eklipse
DYEAR=1994
DGENRE=Jazz
TTITLE0=Dear Prudence
TTITLE1=Goin Up
TTITLE2=Interplay
TTITLE3=After All The Things In My Life
TTITLE4=East 34th St.
TTITLE5=After Shock
TTITLE6=Eklipse
TTITLE7=E' Voce
TTITLE8=Sim
EXTD=YEAR: 1994
EXTT0=
EXTT1=
EXTT2=
EXTT3=
EXTT4=
EXTT5=
EXTT6=
EXTT7=
EXTT8=
PLAYORDER=
